<?xml version="1.0" encoding="iso-8859-1"?>
<!-- Generator: Adobe Illustrator 19.0.0, SVG Export Plug-In . SVG Version: 6.00 Build 0)  -->
<svg version="1.1" id="Capa_1" xmlns="http://www.w3.org/2000/svg" xmlns:xlink="http://www.w3.org/1999/xlink" x="0px" y="0px"
	 viewBox="0 0 416 416" style="enable-background:new 0 0 416 416;" xml:space="preserve">
<g>
	<path style="fill:#2AC6BE;" d="M32.8,68c0-29.6,21.6-54.4,51.2-59.2l8.8-1.6V288h-7.2c-15.2,1.6-28.8,9.6-39.2,20.8L32,325.6V68
		H32.8z"/>
	<path style="fill:#2AC6BE;" d="M92.8,288V8h290.4v196l-112.8-76.8v-1.6c0-21.6-8.8-42.4-24-56.8C216.8,42.4,172,43.2,144,70.4
		l44.8,15.2c8,2.4,13.6,8.8,16,16.8c3.2,8.8,3.2,18.4,0,28c-4,15.2-16.8,25.6-32,27.2c-2.4,0-4.8,0-7.2-0.8L124,143.2
		c10.4,40,50.4,64,90.4,54.4c8.8-2.4,16.8-5.6,24-11.2l4.8-3.2l134.4,92c3.2,2.4,4,6.4,1.6,9.6c-0.8,2.4-3.2,3.2-4.8,3.2H92.8z"/>
</g>
<g>
	<path style="fill:#B7F3F9;" d="M242.4,182.4c-32,25.6-79.2,20-104.8-12c-2.4-3.2-4.8-7.2-7.2-11.2l-9.6-17.6l44.8,15.2
		c2.4,0.8,4.8,0.8,7.2,0.8c15.2-1.6,28-12,32-27.2c3.2-8.8,3.2-18.4,0-28c-2.4-8-8-14.4-16-16.8l-47.2-16l14.4-8.8
		c34.4-22.4,80.8-12,103.2,22.4c8,12.8,12.8,28,12,43.2L384,203.2v74.4L242.4,182.4z"/>
	<path style="fill:#B7F3F9;" d="M92.8,288c-32.8-1.6-61.6,24-63.2,56.8s24,61.6,56.8,63.2c2.4,0,4,0,6.4,0h290.4V288H92.8z"/>
</g>
<path style="fill:#082B33;" d="M383.2,0H92.8c-37.6,0-68,30.4-68,68v280c0,37.6,30.4,68,68,68h290.4c4.8,0,8-3.2,8-8V8
	C391.2,3.2,388,0,383.2,0z M40.8,68c0-25.6,18.4-47.2,44-51.2v264c-17.6,2.4-32.8,10.4-44,24V68z M375.2,319.2H124c-4.8,0-8,3.2-8,8
	s3.2,8,8,8h251.2v17.6H124c-4.8,0-8,3.2-8,8s3.2,8,8,8h251.2v32H92.8c-28.8,1.6-53.6-20-55.2-48.8s20-53.6,48.8-55.2
	c1.6,0,4,0,5.6,0h282.4v22.4H375.2z M375.2,263.2l-128-87.2c-3.2-2.4-6.4-2.4-9.6,0c-28.8,23.2-70.4,18.4-93.6-10.4
	c-2.4-3.2-4.8-6.4-6.4-10.4l25.6,8.8c19.2,6.4,41.6-7.2,49.6-31.2c4-10.4,4-22.4,0-32.8c-3.2-10.4-11.2-18.4-20.8-21.6L160,68
	c31.2-20,72-11.2,92,20c7.2,11.2,11.2,24.8,10.4,39.2c0,2.4,1.6,5.6,3.2,7.2l108.8,74.4L375.2,263.2z M375.2,188.8l-96.8-65.6
	c-0.8-45.6-38.4-82.4-84-81.6c-21.6,0-41.6,8.8-56.8,24c-3.2,3.2-3.2,8,0,11.2c0.8,0.8,1.6,1.6,3.2,1.6l44.8,15.2
	c5.6,2.4,9.6,6.4,11.2,12c2.4,7.2,2.4,15.2,0,22.4c-5.6,15.2-18.4,24.8-29.6,20.8l-41.6-13.6c-4-1.6-8.8,0.8-10.4,4.8
	c-0.8,1.6-0.8,3.2,0,4.8c11.2,44,56,71.2,100,60c9.6-2.4,18.4-6.4,26.4-12l128,87.2H100.8V16h274.4V188.8z"/>
<g>
</g>
<g>
</g>
<g>
</g>
<g>
</g>
<g>
</g>
<g>
</g>
<g>
</g>
<g>
</g>
<g>
</g>
<g>
</g>
<g>
</g>
<g>
</g>
<g>
</g>
<g>
</g>
<g>
</g>
</svg>
